<?xml version="1.0" encoding="UTF-8"?>
<svg version="1.1" xmlns="http://www.w3.org/2000/svg" width="747" height="419">
<path d="M0 0 C246.51 0 493.02 0 747 0 C747 138.27 747 276.54 747 419 C500.49 419 253.98 419 0 419 C0 280.73 0 142.46 0 0 Z " fill="#FECF53" transform="translate(0,0)"/>
<path d="M0 0 C0.97839844 0.58136719 1.95679688 1.16273438 2.96484375 1.76171875 C3.53734863 2.08712646 4.10985352 2.41253418 4.69970703 2.74780273 C6.02381602 3.50810306 7.3373245 4.28704056 8.64208984 5.08007812 C11.17196784 6.61254257 13.73119768 8.08687224 16.296875 9.55859375 C26.40900098 15.38248292 26.40900098 15.38248292 30.90649414 18.23632812 C34.13108364 20.16636093 37.44299119 21.43857594 40.95874023 22.75585938 C47.86474619 25.61314137 54.13273847 28.52751416 58.90234375 34.44921875 C62.88690366 45.18867778 61.84496664 57.06817762 61.30804443 68.32067871 C61.18347278 71.66690003 61.19731245 75.00658723 61.21354389 78.35463524 C61.21779541 81.59759763 61.15499913 84.8364804 61.07027245 88.07823563 C61.03419836 89.6175923 61.01391806 91.15741023 61.01040077 92.69718552 C60.96783712 97.53340594 60.65618889 101.8793449 58.90234375 106.44921875 C54.93074791 110.16574155 50.86691319 112.20614285 45.90234375 114.44921875 C44.07312095 115.47549572 42.25193661 116.51647515 40.4453125 117.58203125 C38.66154769 118.58191343 36.87635882 119.57925886 35.08984375 120.57421875 C28.75099652 124.11472142 22.44908918 127.69809631 16.22265625 131.43359375 C15.1344458 132.08312012 14.04623535 132.73264648 12.92504883 133.40185547 C10.81717767 134.66410944 8.71520974 135.93628463 6.61987305 137.21923828 C5.66765869 137.78755371 4.71544434 138.35586914 3.734375 138.94140625 C2.89624268 139.4504248 2.05811035 139.95944336 1.19458008 140.48388672 C-1.09765625 141.44921875 -1.09765625 141.44921875 -3.08618164 141.27270508 C-5.54143136 140.26753973 -7.80062499 139.08409186 -10.11328125 137.78125 C-11.10577881 137.224375 -12.09827637 136.6675 -13.12084961 136.09375 C-14.1856958 135.48917969 -15.25054199 134.88460937 -16.34765625 134.26171875 C-17.44924072 133.64039063 -18.5508252 133.0190625 -19.68579102 132.37890625 C-31.22274152 125.85156151 -42.69565672 119.20960423 -54.09765625 112.44921875 C-54.93091431 112.13302582 -55.76417236 111.81683289 -56.62268066 111.49105835 C-59.73007371 110.11372533 -61.75686611 108.93094265 -64.09765625 106.44921875 C-65.52643445 101.01720937 -65.26385155 95.67380962 -65.07421875 90.11328125 C-65.05555233 88.50764377 -65.04132485 86.90194908 -65.03134155 85.29623413 C-64.99327327 81.08279377 -64.89516147 76.87283644 -64.78430176 72.6607666 C-64.68174523 68.35765712 -64.63627866 64.05398099 -64.5859375 59.75 C-64.47889353 51.31481293 -64.30837951 42.88244981 -64.09765625 34.44921875 C-62.92894234 33.78257454 -62.92894234 33.78257454 -61.73661804 33.10246277 C-58.77719135 31.41398691 -55.81808499 29.72495216 -52.85917664 28.03556824 C-51.59137565 27.31186231 -50.32345632 26.58836366 -49.05540466 25.86509705 C-39.28945823 20.29455682 -29.56054886 14.66464737 -19.86399841 8.97401428 C-18.11846591 7.95104363 -16.3689432 6.93485088 -14.61547852 5.92553711 C-12.93595096 4.94075061 -11.27688191 3.92022092 -9.64038086 2.86547852 C-3.9147776 -0.69607017 -3.9147776 -0.69607017 0 0 Z " fill="#141311" transform="translate(193.09765625,146.55078125)"/>
<path d="M0 0 C0.97839844 0.58136719 1.95679688 1.16273438 2.96484375 1.76171875 C3.53734863 2.08712646 4.10985352 2.41253418 4.69970703 2.74780273 C6.02381602 3.50810306 7.3373245 4.28704056 8.64208984 5.08007812 C11.17196784 6.61254257 13.73119768 8.08687224 16.296875 9.55859375 C26.40900098 15.38248292 26.40900098 15.38248292 30.90649414 18.23632812 C34.13108364 20.16636093 37.44299119 21.43857594 40.95874023 22.75585938 C47.86474619 25.61314137 54.13273847 28.52751416 58.90234375 34.44921875 C62.88690366 45.18867778 61.84496664 57.06817762 61.30804443 68.32067871 C61.18347278 71.66690003 61.19731245 75.00658723 61.21354389 78.35463524 C61.21779541 81.59759763 61.15499913 84.8364804 61.07027245 88.07823563 C61.03419836 89.6175923 61.01391806 91.15741023 61.01040077 92.69718552 C60.96783712 97.53340594 60.65618889 101.8793449 58.90234375 106.44921875 C54.93074791 110.16574155 50.86691319 112.20614285 45.90234375 114.44921875 C44.07312095 115.47549572 42.25193661 116.51647515 40.4453125 117.58203125 C38.66154769 118.58191343 36.87635882 119.57925886 35.08984375 120.57421875 C28.75099652 124.11472142 22.44908918 127.69809631 16.22265625 131.43359375 C15.1344458 132.08312012 14.04623535 132.73264648 12.92504883 133.40185547 C10.81717767 134.66410944 8.71520974 135.93628463 6.61987305 137.21923828 C5.66765869 137.78755371 4.71544434 138.35586914 3.734375 138.94140625 C2.89624268 139.4504248 2.05811035 139.95944336 1.19458008 140.48388672 C-1.09765625 141.44921875 -1.09765625 141.44921875 -3.08618164 141.27270508 C-5.54143136 140.26753973 -7.80062499 139.08409186 -10.11328125 137.78125 C-11.10577881 137.224375 -12.09827637 136.6675 -13.12084961 136.09375 C-14.1856958 135.48917969 -15.25054199 134.88460937 -16.34765625 134.26171875 C-17.44924072 133.64039063 -18.5508252 133.0190625 -19.68579102 132.37890625 C-31.22274152 125.85156151 -42.69565672 119.20960423 -54.09765625 112.44921875 C-54.93091431 112.13302582 -55.76417236 111.81683289 -56.62268066 111.49105835 C-59.73007371 110.11372533 -61.75686611 108.93094265 -64.09765625 106.44921875 C-65.52643445 101.01720937 -65.26385155 95.67380962 -65.07421875 90.11328125 C-65.05555233 88.50764377 -65.04132485 86.90194908 -65.03134155 85.29623413 C-64.99327327 81.08279377 -64.89516147 76.87283644 -64.78430176 72.6607666 C-64.68174523 68.35765712 -64.63627866 64.05398099 -64.5859375 59.75 C-64.47889353 51.31481293 -64.30837951 42.88244981 -64.09765625 34.44921875 C-62.92894234 33.78257454 -62.92894234 33.78257454 -61.73661804 33.10246277 C-58.77719135 31.41398691 -55.81808499 29.72495216 -52.85917664 28.03556824 C-51.59137565 27.31186231 -50.32345632 26.58836366 -49.05540466 25.86509705 C-39.28945823 20.29455682 -29.56054886 14.66464737 -19.86399841 8.97401428 C-18.11846591 7.95104363 -16.3689432 6.93485088 -14.61547852 5.92553711 C-12.93595096 4.94075061 -11.27688191 3.92022092 -9.64038086 2.86547852 C-3.9147776 -0.69607017 -3.9147776 -0.69607017 0 0 Z M-9.04296875 23.16015625 C-10.03031006 23.74128174 -11.01765137 24.32240723 -12.03491211 24.92114258 C-13.61284546 25.86316528 -13.61284546 25.86316528 -15.22265625 26.82421875 C-16.29330322 27.45674561 -17.3639502 28.08927246 -18.46704102 28.7409668 C-20.64277308 30.02676706 -22.81701449 31.31509309 -24.98974609 32.60595703 C-27.79720557 34.2710253 -30.61100756 35.92433264 -33.4296875 37.5703125 C-34.60797119 38.25891357 -34.60797119 38.25891357 -35.81005859 38.96142578 C-37.26723815 39.81296608 -38.7245885 40.66421422 -40.18212891 41.51513672 C-43.31986153 43.23702702 -43.31986153 43.23702702 -46.09765625 45.44921875 C-46.1909933 47.04532857 -46.21510997 48.64555303 -46.21118164 50.24438477 C-46.21110611 51.26536758 -46.21103058 52.2863504 -46.21095276 53.33827209 C-46.20579147 54.44867355 -46.20063019 55.55907501 -46.1953125 56.703125 C-46.19389755 57.83370834 -46.1924826 58.96429169 -46.19102478 60.12913513 C-46.18540644 63.7566894 -46.17285083 67.38418299 -46.16015625 71.01171875 C-46.15514361 73.46419182 -46.1505803 75.91666585 -46.14648438 78.36914062 C-46.13543105 84.3958542 -46.11867509 90.42253214 -46.09765625 96.44921875 C-45.32276855 96.89201172 -44.54788086 97.33480469 -43.74951172 97.79101562 C-29.28125 106.05859375 -29.28125 106.05859375 -27.43804932 107.11279297 C-26.20259657 107.81813649 -24.96605634 108.52157851 -23.72845459 109.22314453 C-20.53075488 111.03912988 -17.36014778 112.88720763 -14.21972656 114.80078125 C-13.5919632 115.17690552 -12.96419983 115.55302979 -12.31741333 115.94055176 C-10.58096653 116.98265639 -8.85294557 118.03876375 -7.12548828 119.09570312 C-3.67097026 120.63995792 -2.59395391 120.74536364 0.90234375 119.44921875 C3.00209957 118.40116702 5.06341444 117.27456936 7.09375 116.09765625 C7.67970444 115.76053619 8.26565887 115.42341614 8.86936951 115.07608032 C10.73839952 113.99866849 12.60162385 112.91164098 14.46484375 111.82421875 C16.29688213 110.76521179 18.12996581 109.70812351 19.96510315 108.65449524 C21.1792247 107.94798244 22.38565296 107.22808602 23.58409119 106.49528503 C26.54569846 104.6998272 29.11862948 103.37656528 32.43383789 102.26293945 C36.36976799 100.77955165 38.27975251 99.77576422 40.90234375 96.44921875 C42.85329829 89.3181749 42.49772914 81.78805436 42.30200195 74.46118164 C42.21495066 70.89110329 42.24017752 67.33435859 42.27929688 63.76367188 C42.2605853 61.49082062 42.23541268 59.21801144 42.203125 56.9453125 C42.21193192 55.88267685 42.22073883 54.8200412 42.22981262 53.72520447 C42.0529813 48.06589955 42.0529813 48.06589955 39.00752258 43.51748657 C36.70383679 41.95586794 34.39820031 40.67606685 31.90234375 39.44921875 C30.92080322 38.86205078 29.9392627 38.27488281 28.92797852 37.66992188 C28.07518311 37.19490234 27.2223877 36.71988281 26.34375 36.23046875 C24.89838867 35.42029297 24.89838867 35.42029297 23.42382812 34.59375 C22.44736328 34.05105469 21.47089844 33.50835937 20.46484375 32.94921875 C18.50706524 31.85680688 16.55002765 30.76306606 14.59375 29.66796875 C13.64773926 29.13945312 12.70172852 28.6109375 11.72705078 28.06640625 C8.08504032 25.98130017 4.52447698 23.77376403 0.97631836 21.53320312 C-3.1157882 19.39442112 -5.37690992 20.98571631 -9.04296875 23.16015625 Z " fill="#131311" transform="translate(193.09765625,146.55078125)"/>
<path d="M0 0 C1.1240625 -0.03480469 2.248125 -0.06960937 3.40625 -0.10546875 C9.41286887 -0.04231505 13.36244436 0.71895973 17.81591797 4.89892578 C23.0973002 10.52728295 23.3136529 15.4657661 23.1953125 22.9375 C23.20392303 24.14639893 23.21253357 25.35529785 23.22140503 26.60083008 C23.22750398 29.1457137 23.21107362 31.69074039 23.17333984 34.23535156 C23.12511373 38.11584882 23.17292954 41.98697929 23.23046875 45.8671875 C23.22452101 48.34897887 23.21298897 50.83076445 23.1953125 53.3125 C23.22263962 55.03786987 23.22263962 55.03786987 23.2505188 56.7980957 C23.08661759 63.10372471 22.19992382 66.67904904 17.81591797 71.35107422 C12.44062601 76.39624567 7.09654417 76.46973245 0 76.25 C-1.68609375 76.30220703 -1.68609375 76.30220703 -3.40625 76.35546875 C-9.41286887 76.29231505 -13.36244436 75.53104027 -17.81591797 71.35107422 C-23.0973002 65.72271705 -23.3136529 60.7842339 -23.1953125 53.3125 C-23.20392303 52.10360107 -23.21253357 50.89470215 -23.22140503 49.64916992 C-23.22750398 47.1042863 -23.21107362 44.55925961 -23.17333984 42.01464844 C-23.12511373 38.13415118 -23.17292954 34.26302071 -23.23046875 30.3828125 C-23.22452101 27.90102113 -23.21298897 25.41923555 -23.1953125 22.9375 C-23.21353058 21.78725342 -23.23174866 20.63700684 -23.2505188 19.4519043 C-23.08661759 13.14627529 -22.19992382 9.57095096 -17.81591797 4.89892578 C-12.44062601 -0.14624567 -7.09654417 -0.21973245 0 0 Z " fill="#141312" transform="translate(499,178.875)"/>
<path d="M0 0 C2.91947706 0.88832506 5.2242387 2.09021864 7.84912109 3.64648438 C8.84032959 4.22954346 9.83153809 4.81260254 10.8527832 5.41333008 C11.89571533 6.0368335 12.93864746 6.66033691 14.01318359 7.30273438 C15.07996338 7.93332764 16.14674316 8.5639209 17.24584961 9.21362305 C20.38095513 11.06948995 23.51008063 12.93509551 26.63818359 14.80273438 C28.26429466 15.76790002 29.89057503 16.73278053 31.51708984 17.69726562 C41.43359904 23.59814982 41.43359904 23.59814982 42.63818359 24.80273438 C42.73152065 26.39884419 42.75563732 27.99906866 42.75170898 29.59790039 C42.75159569 31.12937462 42.75159569 31.12937462 42.7514801 32.69178772 C42.74631882 33.80218918 42.74115753 34.91259064 42.73583984 36.05664062 C42.7344249 37.18722397 42.73300995 38.31780731 42.73155212 39.48265076 C42.72593378 43.11020503 42.71337817 46.73769861 42.70068359 50.36523438 C42.69567096 52.81770744 42.69110764 55.27018148 42.68701172 57.72265625 C42.6759584 63.74936983 42.65920243 69.77604777 42.63818359 75.80273438 C37.03271484 79.00585938 31.42724609 82.20898438 25.82177734 85.41210938 C25.21352112 85.75999512 24.60526489 86.10788086 23.97857666 86.46630859 C22.74312391 87.17165211 21.50658368 87.87509413 20.26898193 88.57666016 C17.07128222 90.3926455 13.90067512 92.24072326 10.76025391 94.15429688 C10.13249054 94.53042114 9.50472717 94.90654541 8.85794067 95.29406738 C7.12149388 96.33617201 5.39347292 97.39227937 3.66601562 98.44921875 C0.2114976 99.99347354 -0.86551875 100.09887926 -4.36181641 98.80273438 C-6.46157223 97.75468264 -8.5228871 96.62808498 -10.55322266 95.45117188 C-11.13917709 95.11405182 -11.72513153 94.77693176 -12.32884216 94.42959595 C-14.19787218 93.35218411 -16.06109651 92.2651566 -17.92431641 91.17773438 C-19.7563436 90.11873388 -21.58941708 89.06165173 -23.42451477 88.00798035 C-24.63876148 87.30143887 -25.84538975 86.58164485 -27.04411316 85.84907532 C-30.00109879 84.05720048 -32.57764552 82.72978416 -35.88452148 81.61206055 C-39.80780142 80.12627477 -41.72897075 79.10629852 -44.36181641 75.80273438 C-46.39726235 68.71634683 -46.12644862 61.23096246 -45.98120117 53.92456055 C-45.92445169 50.3736993 -46.0009147 46.84281213 -46.09033203 43.29296875 C-46.18923579 27.62644649 -46.18923579 27.62644649 -43.22460938 23.04553223 C-39.86931176 19.79379683 -35.6597397 18.40476761 -31.36181641 16.80273438 C-29.05529115 15.51169943 -26.77081539 14.18047086 -24.51025391 12.81054688 C-22.25356529 11.51431743 -19.99575221 10.22004367 -17.73681641 8.92773438 C-15.45220319 7.61915269 -13.16857218 6.30889004 -10.88525391 4.99804688 C-9.89444824 4.43102051 -8.90364258 3.86399414 -7.8828125 3.27978516 C-1.99986117 -0.16703409 -1.99986117 -0.16703409 0 0 Z M-5.58837891 14.31835938 C-7.074073 15.19759367 -8.54023384 16.11053547 -9.98681641 17.05273438 C-11.437257 17.93307492 -12.88778067 18.81327861 -14.33837891 19.69335938 C-15.99611328 20.71945313 -17.65384766 21.74554688 -19.36181641 22.80273438 C-23.98181641 25.44273437 -28.60181641 28.08273438 -33.36181641 30.80273438 C-33.36181641 43.34273437 -33.36181641 55.88273437 -33.36181641 68.80273438 C-25.03067465 73.60461039 -25.03067465 73.60461039 -16.69897461 78.40551758 C-15.65572021 79.00710693 -14.61246582 79.60869629 -13.53759766 80.22851562 C-12.47452393 80.84122314 -11.4114502 81.45393066 -10.31616211 82.08520508 C-7.36181641 83.80273438 -7.36181641 83.80273438 -4.78833008 85.58862305 C-2.45061104 87.00399001 -2.45061104 87.00399001 0.07128906 86.69702148 C3.19316109 85.60938431 5.85328829 84.16368141 8.70849609 82.49414062 C9.2714035 82.16735825 9.83431091 81.84057587 10.41427612 81.50389099 C12.20118886 80.46426621 13.98211619 79.41483499 15.76318359 78.36523438 C16.96724385 77.66343277 18.17166766 76.9622545 19.37646484 76.26171875 C25.58291581 72.65487766 25.58291581 72.65487766 31.63818359 68.80273438 C31.90478542 65.89438553 31.98597483 63.20135169 31.93115234 60.29492188 C31.9269075 59.45430206 31.92266266 58.61368225 31.91828918 57.74758911 C31.90146892 55.05731444 31.86381141 52.36778338 31.82568359 49.67773438 C31.81064105 47.85613059 31.7969519 46.0345151 31.78466797 44.21289062 C31.75155454 39.74255114 31.69974997 35.27276891 31.63818359 30.80273438 C28.22564998 28.87972557 24.81169539 26.95926561 21.39648438 25.04101562 C19.6729328 24.07226573 17.9504685 23.10158223 16.22802734 22.13085938 C14.02818726 20.89586144 11.82174086 19.67254679 9.60839844 18.46191406 C7.82240235 17.46424602 6.05772612 16.42449203 4.34375 15.30761719 C0.52505503 12.94648973 -1.60499983 12.45391416 -5.58837891 14.31835938 Z " fill="#FBCA4B" transform="translate(191.36181640625,167.197265625)"/>
<path d="M0 0 C4.8194377 -0.22420446 9.63578085 -0.38655807 14.45922852 -0.49438477 C16.09583454 -0.53936684 17.73208454 -0.60058066 19.36743164 -0.67895508 C34.66010223 -1.39295526 34.66010223 -1.39295526 40.578125 3.64453125 C45.40235465 9.63601794 45.15514176 15.85817775 44.8125 23.25 C44.80541016 24.50296875 44.79832031 25.7559375 44.79101562 27.046875 C44.63973155 33.63300951 44.43490172 36.94433289 40 42 C39.65589051 44.24294344 39.65589051 44.24294344 40.125 46.4375 C40.25003906 47.21351563 40.37507812 47.98953125 40.50390625 48.7890625 C41.1348584 51.60102248 42.05146809 54.28087519 43 57 C43 58.32 43 59.64 43 61 C43.99 61.33 44.98 61.66 46 62 C46 65.96 46 69.92 46 74 C40.06 74 34.12 74 28 74 C28.04125 71.40125 28.0825 68.8025 28.125 66.125 C28.17713542 59.47900491 27.64443396 53.47495873 26 47 C22.7 47 19.4 47 16 47 C16.14026283 49.31284456 16.28735558 51.62527591 16.4375 53.9375 C16.51871094 55.22527344 16.59992187 56.51304687 16.68359375 57.83984375 C16.64919188 60.86023957 16.64919188 60.86023957 18 62 C18.14355117 66.00220653 18.04216403 69.99441683 18 74 C12.06 74 6.12 74 0 74 C-0.09765625 64.72265625 -0.09765625 64.72265625 0 62 C0.495 61.505 0.495 61.505 1 61 C1.1225355 59.46617321 1.17777938 57.92689481 1.20532227 56.38842773 C1.22526749 55.40748642 1.24521271 54.4265451 1.26576233 53.4158783 C1.28247482 52.3492244 1.29918732 51.2825705 1.31640625 50.18359375 C1.33718735 49.0974025 1.35796844 48.01121124 1.37937927 46.8921051 C1.44499442 43.40730373 1.50381511 39.92242432 1.5625 36.4375 C1.60567385 34.08137199 1.64928776 31.72525201 1.69335938 29.36914062 C1.80068792 23.57951063 1.90243165 17.78980225 2 12 C1.34 12 0.68 12 0 12 C0 8.04 0 4.08 0 0 Z " fill="#151412" transform="translate(527,180)"/>
<path d="M0 0 C5.61 0 11.22 0 17 0 C21.62 11.88 26.24 23.76 31 36 C31.020625 32.225625 31.04125 28.45125 31.0625 24.5625 C31.071604 23.37084229 31.08070801 22.17918457 31.09008789 20.95141602 C31.09258545 20.01998779 31.09508301 19.08855957 31.09765625 18.12890625 C31.10289307 17.17056885 31.10812988 16.21223145 31.11352539 15.22485352 C31.2505313 13.02714661 31.2505313 13.02714661 30 12 C29.85644883 7.99779347 29.95783597 4.00558317 30 0 C35.61 0 41.22 0 47 0 C47.09765625 9.27734375 47.09765625 9.27734375 47 12 C46.67 12.33 46.34 12.66 46 13 C45.87649342 14.90160112 45.82206557 16.8077239 45.79467773 18.71313477 C45.77473251 19.9343251 45.75478729 21.15551544 45.73423767 22.41371155 C45.71725209 23.75627513 45.70037333 25.09884007 45.68359375 26.44140625 C45.66303053 27.80761861 45.64203423 29.17382451 45.62062073 30.5400238 C45.56533465 34.14194524 45.51595437 37.74392471 45.46777344 41.34594727 C45.41760597 45.01909572 45.36189515 48.69215955 45.30664062 52.36523438 C45.19897915 59.57675337 45.09806416 66.78834295 45 74 C40.38 74 35.76 74 31 74 C27.21262211 65.88613999 23.860294 57.68397573 20.6875 49.3125 C20.23310547 48.12205078 19.77871094 46.93160156 19.31054688 45.70507812 C18.20392095 42.80455334 17.10046821 39.90286535 16 37 C15.97113016 40.97915159 15.95324594 44.95827653 15.9375 48.9375 C15.92912109 50.07380859 15.92074219 51.21011719 15.91210938 52.38085938 C15.90888672 53.46044922 15.90566406 54.54003906 15.90234375 55.65234375 C15.89710693 56.65257568 15.89187012 57.65280762 15.88647461 58.68334961 C15.73818905 60.96207228 15.73818905 60.96207228 17 62 C17.14355117 66.00220653 17.04216403 69.99441683 17 74 C11.39 74 5.78 74 0 74 C-0.09765625 64.72265625 -0.09765625 64.72265625 0 62 C0.495 61.505 0.495 61.505 1 61 C1.09831146 59.50129952 1.12798456 57.99801461 1.12939453 56.49609375 C1.13254669 55.53840088 1.13569885 54.58070801 1.13894653 53.59399414 C1.1369223 52.55235107 1.13489807 51.51070801 1.1328125 50.4375 C1.13376923 49.37587646 1.13472595 48.31425293 1.13571167 47.22045898 C1.13639364 44.97086528 1.13453819 42.72126963 1.13037109 40.47167969 C1.1250231 37.01492929 1.13031554 33.55830883 1.13671875 30.1015625 C1.13605797 27.92187471 1.13477682 25.742187 1.1328125 23.5625 C1.13483673 22.52085693 1.13686096 21.47921387 1.13894653 20.40600586 C1.13579437 19.44831299 1.13264221 18.49062012 1.12939453 17.50390625 C1.12859894 16.65642822 1.12780334 15.8089502 1.12698364 14.93579102 C1.21319708 12.9934287 1.21319708 12.9934287 0 12 C-0.14355117 7.99779347 -0.04216403 4.00558317 0 0 Z " fill="#121111" transform="translate(373,180)"/>
<path d="M0 0 C9.24 0 18.48 0 28 0 C28 12 28 12 27 16 C27.36253587 18.85422732 27.36253587 18.85422732 28.109375 21.953125 C28.3681543 23.12311035 28.62693359 24.2930957 28.89355469 25.49853516 C29.17618164 26.73651855 29.45880859 27.97450195 29.75 29.25 C30.31428901 31.78345635 30.87679861 34.31730972 31.4375 36.8515625 C31.70949219 38.0777832 31.98148438 39.30400391 32.26171875 40.56738281 C33.45486637 46.11488795 34.42860227 51.69249313 35.359375 57.2890625 C35.78012584 60.13048258 35.78012584 60.13048258 38 62 C38.27783543 66.01194366 38.0856495 69.97447362 38 74 C33.38 74 28.76 74 24 74 C22.77731709 68.34509154 22 63.84044472 22 58 C16.72 58 11.44 58 6 58 C5.855625 59.711875 5.71125 61.42375 5.5625 63.1875 C5.24861109 66.90932563 4.73741485 70.31292574 4 74 C-0.62 74 -5.24 74 -10 74 C-10 70.04 -10 66.08 -10 62 C-8.515 61.505 -8.515 61.505 -7 61 C-7.08894531 59.68902344 -7.08894531 59.68902344 -7.1796875 58.3515625 C-7.17661591 52.2360354 -5.47397275 46.3042058 -4.125 40.375 C-0.97998869 26.78914676 -0.97998869 26.78914676 1 13 C0.67 12.67 0.34 12.34 0 12 C0 8.04 0 4.08 0 0 Z " fill="#141312" transform="translate(586,180)"/>
<path d="M0 0 C3.97291362 2.272395 6.16482771 5.10088902 8.02050781 9.21630859 C9.01808837 14.36573674 8.49920953 18.95058974 8.02050781 24.21630859 C3.40050781 24.21630859 -1.21949219 24.21630859 -5.97949219 24.21630859 C-6.47449219 19.26630859 -6.47449219 19.26630859 -6.97949219 14.21630859 C-8.95858616 14.18944306 -10.9377819 14.16997484 -12.91699219 14.15380859 C-14.57021484 14.13640625 -14.57021484 14.13640625 -16.25683594 14.11865234 C-18.89396853 13.90368288 -18.89396853 13.90368288 -19.97949219 15.21630859 C-20.07842158 17.38111656 -20.10920319 19.54924644 -20.10449219 21.71630859 C-20.10707031 22.90224609 -20.10964844 24.08818359 -20.11230469 25.31005859 C-20.31159438 28.10890282 -20.31159438 28.10890282 -18.97949219 29.21630859 C-17.1037099 29.19727585 -15.22792589 29.17649071 -13.35229492 29.14599609 C-6.81327339 29.16810839 -1.25803375 29.59893506 4.08300781 33.71630859 C10.14744007 40.87483945 9.52443958 50.46786778 8.87597656 59.40380859 C8.33374054 63.89479869 7.76642504 67.56199222 5.02050781 71.27880859 C-2.37605346 76.67213452 -13.66948742 75.73781467 -22.34277344 74.72167969 C-27.13754575 73.80268166 -29.90292104 72.08009394 -32.81933594 68.21630859 C-35.10800253 62.29814043 -34.64209758 56.42516649 -33.97949219 50.21630859 C-29.68949219 50.21630859 -25.39949219 50.21630859 -20.97949219 50.21630859 C-20.7516276 52.52750651 -20.52376302 54.83870443 -20.29589844 57.14990234 C-20.19018404 59.20292885 -20.19018404 59.20292885 -18.97949219 60.21630859 C-16.9598502 60.28874912 -14.93782095 60.30008048 -12.91699219 60.27880859 C-10.95761719 60.25818359 -8.99824219 60.23755859 -6.97949219 60.21630859 C-6.97949219 55.26630859 -6.97949219 50.31630859 -6.97949219 45.21630859 C-8.09066406 45.26013672 -9.20183594 45.30396484 -10.34667969 45.34912109 C-17.54839819 45.43330438 -24.13317363 45.26942419 -30.04199219 40.71630859 C-36.07836849 33.56824165 -35.55736983 24.01967836 -34.90917969 15.09521484 C-34.27494334 10.05374764 -33.50720456 6.66687654 -30.35449219 2.65380859 C-22.45535121 -3.28752237 -9.06288787 -3.58804515 0 0 Z " fill="#171512" transform="translate(312.9794921875,179.78369140625)"/>
<path d="M0 0 C1.11044678 0.02755371 2.22089355 0.05510742 3.36499023 0.08349609 C9.21574381 0.40764479 13.9517923 0.81276646 18.5625 4.75 C22.98711206 10.70987616 22.12032297 17.02574821 21.5 24.125 C17.21 24.125 12.92 24.125 8.5 24.125 C8.27213542 22.07421875 8.04427083 20.0234375 7.81640625 17.97265625 C7.68113386 16.11359771 7.68113386 16.11359771 6.5 15.125 C4.33519203 15.0260706 2.16706215 14.995289 0 15 C-1.1859375 14.99742187 -2.371875 14.99484375 -3.59375 14.9921875 C-6.39259422 14.79289781 -6.39259422 14.79289781 -7.5 16.125 C-7.59795311 17.50109882 -7.62798088 18.88213882 -7.62939453 20.26171875 C-7.63254669 21.13932861 -7.63569885 22.01693848 -7.63894653 22.92114258 C-7.6369223 23.87529053 -7.63489807 24.82943848 -7.6328125 25.8125 C-7.63376923 26.78533936 -7.63472595 27.75817871 -7.63571167 28.76049805 C-7.63639358 30.821778 -7.63453853 32.88306008 -7.63037109 34.94433594 C-7.625023 38.11137688 -7.63031572 41.278276 -7.63671875 44.4453125 C-7.63605797 46.44270865 -7.63477681 48.44010471 -7.6328125 50.4375 C-7.63483673 51.39164795 -7.63686096 52.3457959 -7.63894653 53.32885742 C-7.63579437 54.20646729 -7.63264221 55.08407715 -7.62939453 55.98828125 C-7.62859894 56.76469971 -7.62780334 57.54111816 -7.62698364 58.34106445 C-7.69403542 60.14933662 -7.69403542 60.14933662 -6.5 61.125 C-4.33519203 61.2239294 -2.16706215 61.254711 0 61.25 C1.1859375 61.25257813 2.371875 61.25515625 3.59375 61.2578125 C6.39259422 61.45710219 6.39259422 61.45710219 7.5 60.125 C7.73192865 58.61030552 7.91215238 57.08745438 8.0625 55.5625 C8.2790625 53.3659375 8.2790625 53.3659375 8.5 51.125 C12.79 51.125 17.08 51.125 21.5 51.125 C23.0386621 65.54283373 23.0386621 65.54283373 18.5625 71.5625 C13.13417861 76.13692814 6.80322278 76.07674808 0 76.25 C-1.08015381 76.29181396 -2.16030762 76.33362793 -3.27319336 76.37670898 C-9.15710923 76.27286724 -12.939956 75.43168584 -17.30224609 71.35107422 C-22.59738718 65.72256418 -22.81379574 60.79325285 -22.6953125 53.3125 C-22.70392303 52.10360107 -22.71253357 50.89470215 -22.72140503 49.64916992 C-22.72750398 47.1042863 -22.71107362 44.55925961 -22.67333984 42.01464844 C-22.62511373 38.13415118 -22.67292954 34.26302071 -22.73046875 30.3828125 C-22.72452101 27.90102113 -22.71298897 25.41923555 -22.6953125 22.9375 C-22.71353058 21.78725342 -22.73174866 20.63700684 -22.7505188 19.4519043 C-22.58639437 13.13768732 -21.6983009 9.5717453 -17.30224609 4.89892578 C-12.0530128 -0.01135803 -6.94946227 -0.26850313 0 0 Z " fill="#121111" transform="translate(448.5,178.875)"/>
<path d="M0 0 C3.96 0 7.92 0 12 0 C15.06862482 6.59186072 17.5794479 13.28905026 19.94921875 20.15625 C20.72440824 22.86380535 20.72440824 22.86380535 22 24 C24.97 16.08 27.94 8.16 31 0 C34.96 0 38.92 0 43 0 C43 4.29 43 8.58 43 13 C42.01 13.33 41.02 13.66 40 14 C39.24675001 15.85331309 39.24675001 15.85331309 38.8125 18.25 C37.61783203 23.21594416 35.91882518 27.76633518 33.9831543 32.47485352 C29.86801106 42.54829623 27.7527761 51.07579376 28 62 C29.485 62.495 29.485 62.495 31 63 C31 66.96 31 70.92 31 75 C25.06 75 19.12 75 13 75 C12.90234375 65.72265625 12.90234375 65.72265625 13 63 C13.495 62.505 13.495 62.505 14 62 C15.03340761 51.02015504 13.38611914 41.89583078 9.46508789 31.65820312 C8.67269977 29.586301 7.9210303 27.50263931 7.17382812 25.4140625 C4.93818729 18.24941491 4.93818729 18.24941491 0 13 C-0.29296875 9.9609375 -0.29296875 9.9609375 -0.1875 6.375 C-0.16042969 5.18648437 -0.13335937 3.99796875 -0.10546875 2.7734375 C-0.07066406 1.85820312 -0.03585937 0.94296875 0 0 Z " fill="#151412" transform="translate(325,179)"/>
<path d="M0 0 C1.90072266 0.02126953 1.90072266 0.02126953 3.83984375 0.04296875 C5.74443359 0.05263672 5.74443359 0.05263672 7.6875 0.0625 C10.77734375 0.23046875 10.77734375 0.23046875 11.77734375 1.23046875 C11.87548362 2.66787228 11.90532655 4.11003202 11.90673828 5.55078125 C11.90989044 6.46843262 11.9130426 7.38608398 11.91629028 8.33154297 C11.91426605 9.32943848 11.91224182 10.32733398 11.91015625 11.35546875 C11.91159134 12.88131592 11.91159134 12.88131592 11.91305542 14.43798828 C11.91373736 16.59342511 11.9118821 18.74886397 11.90771484 20.90429688 C11.9023668 24.21619246 11.90765938 27.52795242 11.9140625 30.83984375 C11.91340172 32.92838572 11.91212056 35.0169276 11.91015625 37.10546875 C11.91218048 38.10336426 11.91420471 39.10125977 11.91629028 40.12939453 C11.91313812 41.0470459 11.90998596 41.96469727 11.90673828 42.91015625 C11.90594269 43.72210449 11.90514709 44.53405273 11.90432739 45.37060547 C11.77734375 47.23046875 11.77734375 47.23046875 10.77734375 48.23046875 C8.46740993 48.35604037 6.15315839 48.40622604 3.83984375 48.41796875 C2.57269531 48.43214844 1.30554688 48.44632813 0 48.4609375 C-3.22265625 48.23046875 -3.22265625 48.23046875 -5.22265625 46.23046875 C-5.47662354 44.33300781 -5.47662354 44.33300781 -5.48144531 41.99609375 C-5.48774963 41.12178711 -5.49405396 40.24748047 -5.50054932 39.34667969 C-5.49650085 38.40083008 -5.49245239 37.45498047 -5.48828125 36.48046875 C-5.4901947 35.51141602 -5.49210815 34.54236328 -5.49407959 33.54394531 C-5.49544204 31.4928359 -5.49174143 29.44171789 -5.48339844 27.390625 C-5.47269984 24.24329336 -5.48329179 21.09653255 -5.49609375 17.94921875 C-5.49477217 15.95963415 -5.4922098 13.97004991 -5.48828125 11.98046875 C-5.49232971 11.03461914 -5.49637817 10.08876953 -5.50054932 9.11425781 C-5.494245 8.23995117 -5.48794067 7.36564453 -5.48144531 6.46484375 C-5.47985413 5.69366211 -5.47826294 4.92248047 -5.47662354 4.12792969 C-4.9917505 0.50530703 -3.41454531 0.24419173 0 0 Z " fill="#FBCE58" transform="translate(495.22265625,192.76953125)"/>
<path d="M0 0 C2.7805439 1.81833934 4.7098359 3.20107704 5.87988281 6.3828125 C6.93000932 11.43087076 7.05270196 16.63562377 5.1875 21.5 C1.16217752 25.7172994 -3.50529688 28.09693462 -9.3125 28.8046875 C-15.12448801 28.09635146 -19.7754261 25.71044517 -23.8125 21.5 C-25.97998479 16.13449503 -25.98877289 9.86102956 -23.8125 4.5 C-17.290314 -3.73438741 -8.90135832 -4.48046952 0 0 Z " fill="#F9C94B" transform="translate(199.8125,204.5)"/>
<path d="M0 0 C9.9609375 -0.1953125 9.9609375 -0.1953125 13 0 C15.55948999 2.55948999 15.26068731 4.27207195 15.2734375 7.765625 C15.26570312 8.50296875 15.25796875 9.2403125 15.25 10 C15.25773438 10.73734375 15.26546875 11.4746875 15.2734375 12.234375 C15.2533196 17.7466804 15.2533196 17.7466804 13 20 C8.65604929 20.27917421 4.35649033 20.08542138 0 20 C0 13.4 0 6.8 0 0 Z " fill="#FDD05A" transform="translate(543,193)"/>
<path d="M0 0 C0.66 0 1.32 0 2 0 C2.50567729 2.56149628 3.00470132 5.12399465 3.5 7.6875 C3.64308594 8.40873047 3.78617188 9.12996094 3.93359375 9.87304688 C4.65571887 13.63841359 5.1824976 17.14473813 5 21 C2.36 21 -0.28 21 -3 21 C-2.68981396 18.4372008 -2.37693109 15.8747789 -2.0625 13.3125 C-1.97548828 12.59126953 -1.88847656 11.87003906 -1.79882812 11.12695312 C-1.33686195 7.37989416 -0.80832321 3.69207089 0 0 Z " fill="#EFC557" transform="translate(599,203)"/>
</svg>
